<svg width="34" height="32" viewBox="0 0 34 32" fill="none" xmlns="http://www.w3.org/2000/svg">
<path d="M22.6666 5.33325H25.5C26.2514 5.33325 26.9721 5.6142 27.5034 6.1143C28.0348 6.6144 28.3333 7.29267 28.3333 7.99992V26.6666C28.3333 27.3738 28.0348 28.0521 27.5034 28.5522C26.9721 29.0523 26.2514 29.3333 25.5 29.3333H8.49996C7.74851 29.3333 7.02784 29.0523 6.49649 28.5522C5.96514 28.0521 5.66663 27.3738 5.66663 26.6666V7.99992C5.66663 7.29267 5.96514 6.6144 6.49649 6.1143C7.02784 5.6142 7.74851 5.33325 8.49996 5.33325H11.3333" stroke="black" stroke-width="2" stroke-linecap="round" stroke-linejoin="round"/>
<path d="M21.25 2.66675H12.75C11.9676 2.66675 11.3334 3.2637 11.3334 4.00008V6.66675C11.3334 7.40313 11.9676 8.00008 12.75 8.00008H21.25C22.0324 8.00008 22.6667 7.40313 22.6667 6.66675V4.00008C22.6667 3.2637 22.0324 2.66675 21.25 2.66675Z" stroke="black" stroke-width="2" stroke-linecap="round" stroke-linejoin="round"/>
</svg>
