<svg width="25" height="25" viewBox="0 0 25 25" fill="none" xmlns="http://www.w3.org/2000/svg">
<path d="M17.9412 3.5C18.2038 3.23735 18.5156 3.02901 18.8588 2.88687C19.2019 2.74473 19.5697 2.67157 19.9412 2.67157C20.3126 2.67157 20.6804 2.74473 21.0236 2.88687C21.3667 3.02901 21.6785 3.23735 21.9412 3.5C22.2038 3.76264 22.4121 4.07444 22.5543 4.4176C22.6964 4.76077 22.7696 5.12856 22.7696 5.5C22.7696 5.87143 22.6964 6.23923 22.5543 6.58239C22.4121 6.92555 22.2038 7.23735 21.9412 7.5L8.44116 21L2.94116 22.5L4.44116 17L17.9412 3.5Z" stroke="#4A4A4A" stroke-width="2" stroke-linecap="round" stroke-linejoin="round"/>
</svg>
