<svg width="25" height="25" viewBox="0 0 25 25" fill="none" xmlns="http://www.w3.org/2000/svg">
<path d="M22.4929 17.1996V20.1996C22.494 20.4781 22.4369 20.7538 22.3254 21.009C22.2138 21.2642 22.0502 21.4932 21.8449 21.6815C21.6397 21.8698 21.3974 22.0131 21.1336 22.1023C20.8698 22.1916 20.5902 22.2247 20.3129 22.1996C17.2357 21.8653 14.2799 20.8138 11.6829 19.1296C9.26668 17.5943 7.21819 15.5458 5.68285 13.1296C3.99283 10.5208 2.9411 7.55063 2.61285 4.45964C2.58786 4.1831 2.62073 3.9044 2.70935 3.64126C2.79798 3.37813 2.94042 3.13633 3.12762 2.93126C3.31481 2.72619 3.54266 2.56235 3.79664 2.45016C4.05063 2.33797 4.32519 2.2799 4.60285 2.27964H7.60285C8.08816 2.27486 8.55864 2.44672 8.92661 2.76317C9.29458 3.07962 9.53493 3.51908 9.60285 3.99964C9.72948 4.9597 9.9643 5.90236 10.3029 6.80964C10.4374 7.16756 10.4665 7.55655 10.3868 7.93052C10.307 8.30448 10.1217 8.64775 9.85285 8.91964L8.58285 10.1896C10.0064 12.6932 12.0793 14.7661 14.5829 16.1896L15.8529 14.9196C16.1247 14.6508 16.468 14.4655 16.842 14.3857C17.2159 14.306 17.6049 14.3351 17.9629 14.4696C18.8701 14.8082 19.8128 15.043 20.7729 15.1696C21.2586 15.2382 21.7023 15.4828 22.0194 15.8571C22.3365 16.2314 22.505 16.7092 22.4929 17.1996Z" stroke="black" stroke-width="1" stroke-linecap="round" stroke-linejoin="round"/>
</svg>
